<?xml version="1.0" encoding="utf-8"?>
<!-- Generator: Adobe Illustrator 22.0.1, SVG Export Plug-In . SVG Version: 6.00 Build 0)  -->
<svg version="1.1" id="Слой_1" xmlns="http://www.w3.org/2000/svg" xmlns:xlink="http://www.w3.org/1999/xlink" x="0px" y="0px"
	 width="20px" height="20px" viewBox="0 0 20 20" style="enable-background:new 0 0 20 20;" xml:space="preserve">
<style type="text/css">
	.st0{fill:#FFFFFF;}
	.st1{fill:#00A3E0;}
</style>
<g>
	<g>
		<path class="st0" d="M10,19.3c-7.4,0-7.5-13.9-7.5-14.5V4.5L10,0.6l7.5,3.9v0.3C17.5,5.4,17.4,19.3,10,19.3z"/>
		<path class="st1" d="M10,1.2l7,3.6c0,0,0,14-7,14s-7-14-7-14L10,1.2 M10,0.1L9.5,0.3l-7,3.6L2,4.2v0.6c0,0.6,0.1,15,8,15
			s8-14.4,8-15V4.2l-0.5-0.3l-7-3.6L10,0.1L10,0.1z"/>
	</g>
	<g>
		<polygon class="st1" points="9.4,13.2 6.1,10.9 6.9,9.6 9.3,11.3 13.3,7.6 14.3,8.7 		"/>
	</g>
</g>
</svg>
