<?xml version="1.0" encoding="utf-8"?>
<!-- Generator: Adobe Illustrator 22.0.1, SVG Export Plug-In . SVG Version: 6.00 Build 0)  -->
<svg version="1.1" id="Слой_1" xmlns="http://www.w3.org/2000/svg" xmlns:xlink="http://www.w3.org/1999/xlink" x="0px" y="0px"
	 width="24px" height="24px" viewBox="0 0 24 24" style="enable-background:new 0 0 24 24;" xml:space="preserve">
<style type="text/css">
	.st0{fill:#99daf4;}
</style>
<g>
	<path class="st0" d="M12,0C5.4,0,0,5.4,0,12s5.4,12,12,12s12-5.4,12-12S18.6,0,12,0z M19.7,12c0,0.3,0,0.7-0.1,1
		c-0.4,1.8-1.9,3-4.1,3h-7c-2.2,0-3.7-1.2-4.1-3c-0.1-0.3-0.1-0.6-0.1-1c0-0.3,0-0.7,0.1-1c0.4-1.8,1.9-3,4.1-3h7
		c2.2,0,3.7,1.2,4.1,3C19.7,11.3,19.7,11.7,19.7,12z"/>
</g>
<g>
	<path class="st0" d="M18.5,12c0,1.6-1.3,3-3,3c-1.7,0-3-1.4-3-3c0-0.5,0.1-0.9,0.3-1.3c-0.5,0.5-0.8,1.2-0.8,2
		c0,0.6,0.2,1.3,0.6,1.7H8.3c-0.7,0-1.3-0.3-1.7-0.7c-0.4-0.4-0.7-0.9-0.7-1.5c0-0.1,0-0.2,0-0.2c0-0.7,0.3-1.3,0.7-1.7
		c0.4-0.4,1-0.7,1.7-0.7h5.4C14.2,9.2,14.8,9,15.5,9C17.2,9,18.5,10.3,18.5,12z"/>
</g>
</svg>
