<?xml version="1.0" encoding="iso-8859-1"?>
<!-- Generator: Adobe Illustrator 18.0.0, SVG Export Plug-In . SVG Version: 6.00 Build 0)  -->
<!DOCTYPE svg PUBLIC "-//W3C//DTD SVG 1.1//EN" "http://www.w3.org/Graphics/SVG/1.1/DTD/svg11.dtd">
<svg xmlns:xlink="http://www.w3.org/1999/xlink" version="1.1" id="Capa_1" xmlns="http://www.w3.org/2000/svg" x="0px"
     y="0px"
     viewBox="80 -80 297 297" style="enable-background:new 0 0 297 297;" xml:space="preserve">
<path d="M250.685,297c5.345-17.25,22.776-77.344,22.776-99.488v-76.899c0-10.362-8.324-18.793-18.555-18.793
	c-10.228,0-18.552,8.431-18.552,18.793v32.79c0,1.927-1.566,3.493-3.492,3.493c-1.927,0-3.492-1.566-3.492-3.493v-51.243
	c0-10.359-8.326-18.789-18.558-18.789c-10.23,0-18.553,8.43-18.553,18.789v36.533c0,1.927-1.567,3.492-3.492,3.492
	c-1.926,0-3.491-1.566-3.491-3.492V87.455c0-10.358-8.324-18.784-18.555-18.784c-10.229,0-18.552,8.426-18.552,18.784v36.542
	c0,1.924-1.568,3.492-3.493,3.492c-1.927,0-3.492-1.568-3.492-3.492V18.788C141.185,8.427,132.859,0,122.627,0
	c-10.231,0-18.556,8.427-18.556,18.788V181.7c0,1.449-0.909,2.762-2.266,3.271c-1.345,0.504-2.918,0.103-3.855-0.974l-43.461-49.715
	l-0.51-0.529c-3.483-3.296-8.053-5.124-12.863-5.151h-0.124c-5.003,0.058-9.629,1.962-13.025,5.366
	c-4.28,4.283-7.634,12.468,0.719,27.156c12.684,22.277,26.547,43.406,38.829,62.122c9.131,13.92,17.757,27.066,24.188,38.154
	c4.111,7.096,12.687,25.727,17.429,35.599H250.685z" fill="#00a3e0" transform="rotate(330)"/>
</svg>
