<?xml version="1.0" encoding="utf-8"?>
<!-- Generator: Adobe Illustrator 22.0.0, SVG Export Plug-In . SVG Version: 6.00 Build 0)  -->
<svg version="1.1" id="Capa_1" xmlns="http://www.w3.org/2000/svg" xmlns:xlink="http://www.w3.org/1999/xlink" x="0px" y="0px"
	 viewBox="0 0 297 297" style="enable-background:new 0 0 297 297;" xml:space="preserve">
<style type="text/css">
	.st0{fill:#FFFFFF;}
	.st1{fill:#00A3E0;}
</style>
<g>
	<path class="st0" d="M110.9,294.2c-0.9-2-2-4.2-3.1-6.6c-4.6-9.8-10.4-22.1-13.6-27.6c-6.4-11.1-15.1-24.2-24.2-38.1l-0.1-0.1
		c-12.2-18.6-26.1-39.7-38.7-62c-4.1-7.2-7.7-17.3-1.2-23.8c2.9-2.9,6.8-4.5,11.1-4.5h0.1c4.1,0,7.9,1.6,10.9,4.3l0.4,0.4l43.4,49.7
		c1.2,1.4,2.9,2.2,4.8,2.2c0.8,0,1.5-0.1,2.2-0.4c2.5-0.9,4.1-3.3,4.1-5.9V18.8c0-8.8,7.1-16,15.7-16c4.2,0,8.1,1.7,11.1,4.7
		c3,3,4.6,7,4.6,11.3V124c0,3.5,2.8,6.3,6.3,6.3c3.5,0,6.3-2.8,6.3-6.3V87.5c0-8.8,7.1-15.9,15.7-15.9c8.7,0,15.7,7.2,15.7,15.9
		v51.2c0,3.5,2.8,6.3,6.3,6.3c3.5,0,6.3-2.8,6.3-6.3v-36.5c0-8.8,7.1-16,15.7-16c8.7,0,15.7,7.2,15.7,16v51.2c0,3.5,2.8,6.3,6.3,6.3
		s6.3-2.8,6.3-6.3v-32.8c0-8.8,7.1-16,15.7-16c8.7,0,15.7,7.2,15.7,16v76.9c0,20.3-15.4,74.8-22,96.7L110.9,294.2z"/>
	<path class="st1" d="M122.6,5.7c3.4,0,6.6,1.4,9.1,3.8c2.5,2.5,3.8,5.8,3.8,9.3V124c0,5.1,4.1,9.2,9.2,9.2c5.1,0,9.2-4.1,9.2-9.2
		V87.5c0-7.2,5.8-13.1,12.9-13.1c7.1,0,12.9,5.9,12.9,13.1v51.2c0,5.1,4.1,9.2,9.2,9.2c5.1,0,9.2-4.1,9.2-9.2v-36.5
		c0-7.2,5.8-13.1,12.9-13.1c7.1,0,12.9,5.9,12.9,13.1v51.2c0,5.1,4.1,9.2,9.2,9.2c5.1,0,9.2-4.1,9.2-9.2v-32.8
		c0-7.2,5.8-13.1,12.9-13.1c7.1,0,12.9,5.9,12.9,13.1v76.9c0,19.4-14.4,70.9-21.3,93.8H112.7c-0.7-1.6-1.5-3.2-2.4-5
		c-4.7-9.9-10.5-22.2-13.7-27.8c-6.5-11.2-15.1-24.3-24.3-38.3l-0.1-0.1c-12.2-18.6-26-39.7-38.6-61.8c-5.3-9.3-5.8-16.1-1.6-20.3
		c2.3-2.3,5.5-3.7,9-3.7l0.1,0c3.3,0,6.5,1.3,8.9,3.5l0.3,0.3l43.4,49.6c1.7,2,4.3,3.1,6.9,3.1c1.1,0,2.2-0.2,3.2-0.6
		c3.6-1.3,5.9-4.8,5.9-8.6V18.8C109.7,11.6,115.5,5.7,122.6,5.7 M122.6,0c-10.2,0-18.6,8.4-18.6,18.8v162.9c0,1.4-0.9,2.8-2.3,3.3
		c-0.4,0.1-0.8,0.2-1.2,0.2c-1,0-2-0.4-2.7-1.2l-43.5-49.7l-0.5-0.5c-3.5-3.3-8.1-5.1-12.9-5.2H41c-5,0.1-9.6,2-13,5.4
		c-4.3,4.3-7.6,12.5,0.7,27.2c12.7,22.3,26.5,43.4,38.8,62.1c9.1,13.9,17.8,27.1,24.2,38.2c4.1,7.1,12.7,25.7,17.4,35.6h141.6v0
		c5.3-17.3,22.8-77.3,22.8-99.5v-76.9c0-10.4-8.3-18.8-18.6-18.8c-10.2,0-18.6,8.4-18.6,18.8v32.8c0,1.9-1.6,3.5-3.5,3.5
		c-1.9,0-3.5-1.6-3.5-3.5v-51.2c0-10.4-8.3-18.8-18.6-18.8c-10.2,0-18.6,8.4-18.6,18.8v36.5c0,1.9-1.6,3.5-3.5,3.5
		c-1.9,0-3.5-1.6-3.5-3.5V87.5c0-10.4-8.3-18.8-18.6-18.8c-10.2,0-18.6,8.4-18.6,18.8V124c0,1.9-1.6,3.5-3.5,3.5
		c-1.9,0-3.5-1.6-3.5-3.5V18.8C141.2,8.4,132.9,0,122.6,0L122.6,0z"/>
</g>
</svg>
